<?xml version="1.0" encoding="UTF-8"?>
<svg id="Capa_1" data-name="Capa 1" xmlns="http://www.w3.org/2000/svg" viewBox="0 0 340.89 92.51">
  <defs>
    <style>
      .cls-1 {
        fill: #bedaf3;
        stroke-width: 1.53px;
      }

      .cls-1, .cls-2, .cls-3 {
        stroke-miterlimit: 10;
      }

      .cls-1, .cls-3 {
        stroke: #004c92;
      }

      .cls-4, .cls-5, .cls-2 {
        fill: #004c92;
      }

      .cls-4, .cls-6 {
        stroke-width: 0px;
      }

      .cls-5 {
        font-family: Helvetica-Bold, Helvetica;
        font-size: 18.48px;
        font-weight: 700;
      }

      .cls-5, .cls-7 {
        isolation: isolate;
      }

      .cls-2 {
        stroke: #16357c;
        stroke-width: 1.39px;
      }

      .cls-3 {
        fill: #1d81c2;
        stroke-width: 2.43px;
      }

      .cls-6 {
        fill: #fff;
      }
    </style>
  </defs>
  <ellipse class="cls-3" cx="66.84" cy="55.99" rx="65.62" ry="35.3"/>
  <g>
    <path class="cls-6" d="M23.22,73.52l3.23-7.71,5.15,2.15-.55,1.3-3.74-1.56-.72,1.71,3.48,1.46-.54,1.3-3.48-1.46-.88,2.1,3.88,1.62-.54,1.3-5.28-2.2Z"/>
    <path class="cls-6" d="M30.57,73.6l1.45.3c-.09.55-.04.99.14,1.32.18.33.49.56.92.71.47.15.85.16,1.16.01s.51-.36.6-.65c.06-.19.06-.37,0-.53s-.19-.34-.41-.51c-.15-.12-.49-.36-1.04-.72-.7-.47-1.16-.9-1.37-1.31-.3-.58-.34-1.19-.14-1.81.13-.41.36-.75.68-1.03s.7-.46,1.16-.51c.45-.06.95,0,1.49.18.9.29,1.5.73,1.81,1.31.31.59.36,1.24.15,1.98l-1.47-.4c.07-.43.03-.77-.11-1.01s-.42-.44-.83-.56c-.42-.14-.78-.15-1.08-.03-.19.08-.33.22-.39.42-.06.19-.04.37.06.55.13.23.51.55,1.15.97.65.41,1.1.77,1.37,1.08s.45.66.53,1.06c.08.4.03.85-.13,1.36-.15.45-.4.84-.76,1.17s-.77.51-1.26.57c-.48.06-1.03-.01-1.65-.22-.9-.3-1.52-.75-1.85-1.37-.34-.62-.4-1.39-.21-2.31Z"/>
    <path class="cls-6" d="M37.13,78.52l2.01-8.11,2.37.59c.9.22,1.47.41,1.72.55.39.23.67.58.85,1.05.18.48.19,1.04.03,1.69-.12.5-.31.9-.55,1.2-.24.3-.52.52-.82.65-.3.13-.59.2-.86.2-.37-.01-.89-.1-1.56-.26l-.96-.24-.76,3.06-1.48-.37ZM40.27,72.14l-.57,2.3.81.2c.58.15.98.2,1.2.16s.4-.13.56-.28c.16-.15.26-.35.32-.59.08-.3.05-.56-.05-.79-.11-.23-.28-.4-.51-.51-.17-.08-.52-.19-1.05-.32l-.71-.17Z"/>
    <path class="cls-6" d="M44.69,76.11c.15-.84.38-1.52.7-2.05.24-.39.53-.73.88-1.01.35-.28.71-.48,1.09-.58.5-.14,1.05-.16,1.65-.05,1.09.19,1.9.72,2.42,1.58.52.87.67,1.97.44,3.31-.23,1.33-.73,2.31-1.51,2.95-.78.64-1.72.87-2.8.67-1.1-.19-1.91-.72-2.44-1.58-.52-.85-.67-1.94-.44-3.25ZM46.25,76.33c-.16.93-.09,1.67.22,2.22s.76.87,1.35.98c.6.1,1.13-.05,1.59-.47s.78-1.09.94-2.05c.16-.94.1-1.68-.19-2.21s-.74-.85-1.36-.95-1.16.04-1.61.45c-.46.4-.77,1.08-.94,2.03Z"/>
    <path class="cls-6" d="M52.73,81.6l.88-8.24,1.51.16-.73,6.84,3.76.4-.15,1.4-5.27-.56Z"/>
    <path class="cls-6" d="M60.31,80.06l.1-1.6,2.83.18-.1,1.6-2.83-.18Z"/>
    <path class="cls-6" d="M65.36,82.54l.03-8.35,5.16.02v1.41s-3.64-.01-3.64-.01v1.98s3.13.01,3.13.01v1.41s-3.15-.01-3.15-.01v3.55s-1.53,0-1.53,0Z"/>
    <path class="cls-6" d="M78.24,82.19l-1.65.09-.76-1.86-3,.16-.52,1.93-1.61.09,2.48-8.5,1.6-.09,3.45,8.19ZM75.27,79.04l-1.2-3.04-.85,3.15,2.05-.11Z"/>
    <path class="cls-6" d="M78.37,73.77l2.76-.34c.62-.08,1.1-.08,1.44-.02.45.09.86.3,1.22.62s.65.74.88,1.26.39,1.15.49,1.93c.09.68.08,1.28-.01,1.79-.11.63-.32,1.15-.62,1.56-.23.31-.55.58-.98.79-.32.16-.76.27-1.31.34l-2.84.35-1.03-8.28ZM80.05,74.99l.68,5.49,1.12-.14c.42-.05.72-.12.9-.19.24-.1.42-.24.56-.42s.24-.47.3-.85c.06-.38.05-.9-.03-1.53s-.19-1.13-.34-1.46c-.15-.33-.32-.58-.53-.75s-.45-.27-.74-.3c-.22-.03-.63,0-1.24.08l-.67.08Z"/>
    <path class="cls-6" d="M91.42,77.04l1.55.22c-.04.94-.27,1.67-.7,2.22-.42.54-1.03.89-1.83,1.05-.98.2-1.86,0-2.64-.62-.78-.62-1.3-1.56-1.56-2.85-.28-1.36-.17-2.48.3-3.37.48-.88,1.24-1.43,2.27-1.64.9-.19,1.69-.03,2.38.44.41.28.76.73,1.06,1.35l-1.4.69c-.17-.41-.42-.7-.75-.9-.33-.19-.69-.24-1.08-.16-.55.11-.95.42-1.2.92s-.28,1.24-.08,2.22c.21,1.03.53,1.74.95,2.11.42.37.91.5,1.44.4.4-.08.71-.29.94-.63.23-.34.34-.83.35-1.45Z"/>
    <path class="cls-6" d="M93.7,75.48c-.24-.81-.34-1.53-.29-2.15.04-.46.16-.89.34-1.3.19-.41.42-.74.72-1,.38-.35.87-.6,1.46-.78,1.06-.32,2.02-.21,2.88.33.85.54,1.48,1.46,1.87,2.76.39,1.29.38,2.4-.03,3.31s-1.15,1.54-2.2,1.85c-1.07.32-2.03.22-2.88-.32-.85-.53-1.47-1.44-1.85-2.71ZM95.18,74.97c.27.91.67,1.53,1.19,1.89.52.35,1.06.44,1.65.27.58-.17.98-.55,1.22-1.13s.21-1.33-.07-2.26c-.27-.92-.66-1.55-1.16-1.89s-1.05-.42-1.65-.24-1.01.55-1.24,1.12c-.22.58-.2,1.31.08,2.24Z"/>
    <path class="cls-6" d="M103.56,76.72l-3.35-7.65,2.08-.91,3.54,4.67-1.05-5.76,2.09-.91,3.35,7.65-1.29.56-2.64-6.02,1.27,6.62-1.34.59-4.01-5.42,2.64,6.02-1.3.57Z"/>
  </g>
  <g>
    <path class="cls-4" d="M9.48,17.21l4.18-3.16c.91-.69,1.76-.99,2.54-.9.78.09,1.48.53,2.08,1.34.62.82.86,1.65.72,2.49s-.72,1.64-1.74,2.41l-1.38,1.04,2.28,3.02-2.53,1.91-6.16-8.15ZM14.64,18.77l.62-.47c.48-.37.76-.71.83-1.02.07-.32,0-.6-.2-.87-.19-.26-.44-.41-.75-.46-.3-.05-.69.1-1.16.46l-.72.54,1.38,1.82Z"/>
    <path class="cls-4" d="M25.08,18.84l-3.99-9.4,4.84-2.06c.9-.38,1.62-.6,2.16-.65s1.04.08,1.51.37c.47.29.83.74,1.08,1.34.22.52.3,1.02.24,1.49-.06.47-.24.91-.53,1.31-.19.26-.47.52-.86.8.4-.03.7-.02.9.02.14.03.37.13.67.3.31.17.53.3.66.41l2.56,2.13-3.28,1.4-2.77-2.22c-.35-.29-.63-.45-.83-.5-.27-.06-.54-.03-.8.08l-.26.11,1.62,3.81-2.92,1.25ZM25.62,12.01l1.23-.52c.13-.06.37-.21.72-.45.17-.12.29-.28.34-.49s.04-.42-.05-.62c-.13-.3-.33-.49-.59-.58s-.66,0-1.19.22l-1.27.54.81,1.91Z"/>
    <path class="cls-4" d="M34.75,9.51c-.4-1.62-.25-2.99.43-4.11s1.83-1.88,3.44-2.27c1.65-.4,3.03-.27,4.14.4s1.86,1.8,2.25,3.4c.28,1.16.32,2.16.11,2.99s-.63,1.55-1.27,2.15c-.64.59-1.51,1.02-2.6,1.29-1.12.27-2.09.32-2.91.15s-1.55-.6-2.2-1.26c-.65-.67-1.11-1.58-1.4-2.74ZM37.82,8.77c.24,1,.6,1.67,1.09,2.02.48.35,1.04.44,1.68.28.66-.16,1.12-.5,1.37-1.02s.25-1.33-.02-2.44c-.23-.94-.58-1.57-1.06-1.91s-1.05-.43-1.69-.27c-.62.15-1.06.49-1.33,1.02-.27.53-.27,1.31-.03,2.31Z"/>
    <path class="cls-4" d="M46.13,1.62l3.48-.42,2.46,3.17,1.63-3.67,3.46-.42-3.23,6.37.51,4.24-3.14.38-.51-4.24-4.66-5.41Z"/>
    <path class="cls-4" d="M60.7.13l8.45-.13.03,2.18-5.29.08.02,1.62,4.91-.08.03,2.08-4.91.08.03,2.01,5.45-.08.03,2.31-8.61.13-.15-10.21Z"/>
    <path class="cls-4" d="M79.76,6.74l2.68,1.08c-.25.76-.6,1.38-1.04,1.86-.44.48-.97.83-1.58,1.04s-1.37.28-2.28.2c-1.1-.1-1.99-.34-2.67-.72-.67-.38-1.23-1-1.67-1.85-.44-.85-.6-1.91-.49-3.17.15-1.68.71-2.94,1.68-3.76.98-.83,2.28-1.17,3.92-1.02,1.28.11,2.27.46,2.95,1.04s1.16,1.42,1.42,2.53l-2.83.37c-.07-.32-.15-.55-.24-.71-.16-.26-.35-.46-.6-.61-.24-.15-.52-.24-.84-.27-.72-.06-1.28.17-1.72.72-.33.4-.52,1.06-.6,1.97-.1,1.13,0,1.91.31,2.36.31.45.77.7,1.39.76.6.05,1.07-.08,1.41-.39.34-.3.61-.77.81-1.4Z"/>
    <path class="cls-4" d="M86.43,1.46l9.4,1.92-.51,2.47-3.15-.65-1.54,7.53-3.09-.63,1.54-7.53-3.15-.65.51-2.47Z"/>
    <path class="cls-4" d="M97.37,9.02c.56-1.57,1.43-2.64,2.62-3.2s2.56-.57,4.12-.01c1.6.57,2.68,1.44,3.24,2.6.56,1.17.56,2.52.02,4.08-.4,1.12-.92,1.98-1.55,2.56-.63.59-1.38.95-2.24,1.1-.86.15-1.82.03-2.89-.35-1.09-.38-1.92-.88-2.51-1.48s-.97-1.35-1.15-2.26c-.17-.91-.06-1.92.34-3.05ZM100.34,10.09c-.34.97-.41,1.73-.2,2.28.21.55.63.94,1.25,1.16.64.23,1.21.2,1.7-.1.5-.29.94-.98,1.32-2.05.32-.91.37-1.63.16-2.18s-.64-.93-1.26-1.16c-.6-.22-1.16-.17-1.67.12-.52.3-.95.94-1.3,1.92Z"/>
    <path class="cls-4" d="M109.56,15.49l2.65,1.42c-.2.45-.28.83-.25,1.16.06.52.34.94.85,1.26.38.24.73.33,1.05.28s.55-.2.7-.43c.14-.23.16-.49.08-.78-.09-.3-.44-.75-1.06-1.35-1.01-.99-1.63-1.87-1.86-2.62-.23-.75-.14-1.47.28-2.15.28-.45.67-.78,1.17-1.02s1.09-.31,1.74-.21c.66.09,1.44.42,2.34.98,1.11.69,1.83,1.42,2.15,2.19.33.77.27,1.65-.18,2.61l-2.62-1.42c.17-.43.21-.8.1-1.12-.1-.31-.35-.58-.73-.82-.31-.19-.59-.27-.83-.24s-.42.15-.53.34c-.09.14-.1.3-.03.49.05.19.29.48.7.88,1.02.98,1.7,1.76,2.04,2.33s.52,1.12.51,1.65c0,.52-.16,1.02-.45,1.5-.34.56-.82.98-1.42,1.25-.6.28-1.25.37-1.95.27-.7-.1-1.48-.41-2.31-.93-1.48-.91-2.32-1.83-2.53-2.76-.23-.93-.1-1.85.37-2.77Z"/>
  </g>
  <path class="cls-1" d="M109.89,65.07s14.96-3.1,16.87-17.74c0,0,4.79,12.46-13.61,23.19l-3.26-5.45Z"/>
  <path class="cls-1" d="M23.93,65.07s-14.96-3.1-16.87-17.74c0,0-4.79,12.46,13.61,23.19l3.26-5.45Z"/>
  <ellipse class="cls-2" cx="66.84" cy="40.36" rx="56.57" ry="26.94"/>
  <g class="cls-7">
    <text class="cls-5" transform="translate(145.76 27.85)"><tspan x="0" y="0">Multimedia Interactivo</tspan></text>
    <text class="cls-5" transform="translate(145.76 50.03)"><tspan x="0" y="0">Didáctico Infantil</tspan></text>
  </g>
  <rect class="cls-4" x="137.3" y="0" width="2.42" height="90.89"/>
  <path class="cls-4" d="M148.82,64.09c.43,0,.78.37.78.81v.03c0,.45.01.81.02.81s.25-.27.53-.61c0,0,.42-.51,1.02-.85.6-.34,1.28-.52,2.05-.52s1.42.15,2.03.45c.61.3.98.9.98.9.23.38.65.41.92.06,0,0,.32-.39.91-.8.6-.41,1.3-.62,2.12-.62.62,0,1.19.08,1.73.23.53.16.98.41,1.36.76s.67.8.88,1.35c.22.56.26,1.21.26,1.21.03.44.06,1.17.06,1.62v6.55c0,.45-.35.81-.78.81h-1.67c-.43,0-.78-.37-.78-.81v-5.3c0-.45,0-1.17-.02-1.6l-.03-.36c-.03-.36-.11-.67-.25-.94-.13-.27-.34-.48-.6-.64-.27-.16-.62-.23-1.08-.23s-.82.09-1.1.27c-.28.18-.5.42-.66.71s-.27.62-.32.99l-.05.37c-.01.41-.02,1.12-.02,1.56v5.18c0,.45-.35.81-.78.81h-1.67c-.43,0-.78-.37-.78-.81v-5.23c0-.45,0-1.13,0-1.53l-.02-.35c-.02-.35-.08-.68-.19-.98-.11-.3-.3-.54-.56-.72-.27-.18-.66-.27-1.17-.27-.15,0-.35.03-.6.1s-.49.2-.73.4c-.23.2-.44.48-.6.85-.17.37-.19.65-.19.65-.03.44-.06,1.17-.06,1.62v5.46c0,.45-.35.81-.78.81h-1.67c-.43,0-.78-.37-.78-.81v-10.58c0-.45.35-.81.78-.81h1.5ZM168.34,62.95c-.43,0-.78-.46-.78-1.03v-1.45c0-.56.35-1.03.78-1.03h1.67c.43,0,.78.46.78,1.03v1.45c0,.56-.35,1.03-.78,1.03h-1.67ZM170,64.09c.43,0,.78.37.78.81v10.58c0,.45-.35.81-.78.81h-1.67c-.43,0-.78-.37-.78-.81v-10.58c0-.45.35-.81.78-.81h1.67ZM182.12,74.73s-.24.28-.51.63c0,0-.39.51-1,.8-.62.29-1.3.44-2.08.44-.88,0-1.65-.17-2.31-.53-.67-.35-1.22-.83-1.65-1.44-.43-.6-.76-1.3-.98-2.09-.22-.78-.33-1.6-.33-2.45s.11-1.61.33-2.37.55-1.44.98-2.02.97-1.05,1.62-1.4c.65-.35,1.41-.53,2.27-.53.7,0,1.36.15,1.98.46.63.31.98.74.98.74.28.34.51.62.53.62.01,0,.02-.37.02-.81v-4.52c0-.45.35-.81.78-.81h1.67c.43,0,.78.37.78.81v15.23c0,.45-.35.81-.78.81h-1.51c-.43,0-.78-.35-.78-.78s-.02-.79-.03-.79ZM181.96,68.7c-.09-.47-.24-.87-.47-1.23s-.5-.64-.85-.86c-.35-.22-.78-.33-1.31-.33s-.98.11-1.34.33-.66.51-.87.87c-.22.36-.38.77-.48,1.24s-.15.95-.15,1.45c0,.47.05.94.16,1.41s.27.9.51,1.26c.23.37.53.67.88.9.35.23.78.34,1.28.34.53,0,.97-.11,1.33-.33.35-.22.64-.51.85-.88.22-.37.36-.79.45-1.26s.13-.96.13-1.47c0-.5-.05-.98-.13-1.45ZM188.95,62.95c-.43,0-.78-.46-.78-1.03v-1.45c0-.56.35-1.03.78-1.03h1.67c.43,0,.78.46.78,1.03v1.45c0,.56-.35,1.03-.78,1.03h-1.67ZM190.61,64.09c.43,0,.78.37.78.81v10.58c0,.45-.35.81-.78.81h-1.67c-.43,0-.78-.37-.78-.81v-10.58c0-.45.35-.81.78-.81h1.67ZM201.43,75.99c0,.09-.03.16-.09.22-.06.05-.15.09-.27.11-.13.02-.31.03-.56.03s-.45-.01-.58-.03c-.12-.02-.2-.06-.26-.11-.05-.05-.08-.12-.08-.22v-.69c-.32.38-.69.68-1.1.9s-.87.32-1.37.32c-.41,0-.8-.06-1.14-.18s-.65-.3-.9-.53-.45-.53-.59-.88c-.14-.35-.21-.76-.21-1.23,0-.51.09-.95.27-1.32s.44-.68.8-.92.79-.42,1.32-.54c.52-.12,1.13-.17,1.83-.17h.76v-.52c0-.27-.02-.51-.08-.72-.05-.2-.13-.37-.24-.51-.12-.13-.27-.24-.45-.3-.19-.06-.42-.1-.7-.1-.37,0-.7.05-.98.13s-.55.19-.77.3-.41.21-.56.3-.27.13-.37.13c-.06,0-.12-.02-.17-.07-.05-.05-.09-.11-.12-.19-.03-.08-.06-.19-.08-.31-.02-.12-.02-.26-.02-.41,0-.2.02-.36.05-.48.03-.12.09-.22.17-.31s.23-.2.43-.31c.2-.11.44-.22.72-.31.27-.1.57-.17.9-.24s.66-.09,1-.09c.61,0,1.13.06,1.57.2s.79.34,1.07.61c.28.27.48.63.61,1.06s.19.95.19,1.55v5.85h0ZM199.27,72.27h-.84c-.35,0-.66.03-.91.09-.25.06-.45.15-.61.26-.16.12-.27.26-.34.42-.08.16-.11.35-.11.57,0,.37.1.65.31.85.21.21.49.31.86.31.31,0,.59-.09.85-.26.26-.17.52-.43.79-.77v-1.48h0ZM216.05,75.96c0,.06-.02.12-.05.17-.03.05-.09.09-.17.12-.08.03-.19.06-.33.08s-.32.02-.53.02-.4,0-.54-.02-.25-.04-.34-.08-.15-.07-.17-.12c-.03-.05-.05-.1-.05-.17v-5.15c0-.29-.02-.56-.08-.8-.05-.24-.13-.45-.23-.62-.1-.17-.23-.3-.38-.4-.16-.09-.34-.14-.56-.14-.26,0-.53.11-.8.34-.27.23-.56.56-.88.99v5.77c0,.06-.02.12-.05.17-.03.05-.09.09-.18.12-.09.03-.2.06-.34.08s-.31.02-.52.02-.4,0-.53-.02-.26-.04-.34-.08c-.09-.03-.15-.07-.18-.12-.03-.05-.05-.1-.05-.17v-5.15c0-.29-.02-.56-.08-.8-.05-.24-.12-.45-.22-.62-.1-.17-.23-.3-.38-.4-.16-.09-.34-.14-.55-.14-.27,0-.53.11-.81.34-.27.23-.56.56-.87.99v5.77c0,.06-.02.12-.05.17-.03.05-.09.09-.18.12-.09.03-.2.06-.34.08s-.32.02-.53.02-.4,0-.53-.02-.25-.04-.34-.08-.15-.07-.18-.12c-.03-.05-.05-.1-.05-.17v-8.67c0-.06.01-.12.05-.17.03-.05.08-.09.16-.12.08-.03.17-.06.29-.08.12-.02.27-.02.45-.02s.34,0,.47.02c.12.02.22.04.28.08s.12.08.15.12.05.1.05.17v1c.43-.52.86-.91,1.29-1.17s.88-.39,1.34-.39c.32,0,.61.03.87.11s.49.18.69.32c.2.14.38.31.52.5s.27.41.37.65c.23-.28.47-.52.69-.72.23-.2.45-.37.67-.49.22-.13.44-.22.66-.28s.44-.09.67-.09c.52,0,.96.1,1.31.29s.65.46.86.79c.22.33.37.73.47,1.17.09.45.14.92.14,1.42v5.55h0Z"/>
  <path class="cls-6" d="M27.23,33.92c.52-.13.94.21.94.76v.04c0,.55.01.99.03.99.02,0,.3-.41.65-.91,0,0,.51-.75,1.24-1.34s1.56-.99,2.49-1.2c.9-.2,1.73-.19,2.47.03.74.22,1.19.87,1.19.87.28.41.78.35,1.12-.13,0,0,.39-.55,1.12-1.18.73-.63,1.6-1.03,2.6-1.19.76-.12,1.47-.13,2.12-.03.65.1,1.21.33,1.67.69s.83.87,1.09,1.52.32,1.45.32,1.44c.04.54.07,1.42.07,1.97v8.03c0,.55-.43,1.05-.96,1.12-.69.09-1.37.19-2.05.28-.52.08-.95-.3-.95-.85v-6.5c0-.55,0-1.43-.02-1.97l-.03-.44c-.03-.44-.14-.81-.31-1.11-.17-.3-.41-.52-.74-.67-.33-.14-.77-.17-1.32-.08-.56.09-1.01.28-1.35.56-.34.28-.61.62-.81,1.01-.19.4-.33.82-.39,1.29l-.06.47c-.02.51-.03,1.37-.03,1.92v6.35c0,.55-.43,1.07-.95,1.17-.68.13-1.35.26-2.03.4-.52.1-.95-.25-.95-.8v-6.41c0-.55,0-1.39,0-1.87l-.02-.43c-.02-.43-.1-.81-.24-1.15s-.37-.58-.69-.73c-.32-.15-.8-.16-1.42-.02-.19.04-.43.14-.73.3-.3.16-.59.39-.88.7s-.53.72-.73,1.22c-.2.51-.23.85-.23.85-.04.55-.08,1.45-.08,2v6.7c0,.55-.42,1.1-.94,1.23-.67.17-1.34.34-2.01.52-.52.14-.94-.19-.94-.74v-12.98c0-.55.42-1.11.94-1.24.59-.15,1.19-.3,1.79-.46ZM51.11,28.38c-.53.05-.96-.47-.96-1.17v-1.78c0-.69.43-1.3.96-1.35.69-.06,1.37-.13,2.06-.18.53-.04.96.49.96,1.19v1.78c0,.69-.43,1.29-.96,1.34-.69.06-1.37.12-2.06.18ZM53.16,29.6c.53-.04.96.37.96.92v12.98c0,.55-.43,1.02-.96,1.07-.69.06-1.37.12-2.06.18-.53.05-.96-.35-.96-.9v-12.98c0-.55.43-1.03.96-1.09.69-.06,1.37-.12,2.06-.18ZM68.15,42.16s-.3.34-.63.77c0,0-.48.62-1.24.97-.76.35-1.62.53-2.57.55-1.09.02-2.04-.18-2.87-.59s-1.5-.97-2.03-1.69c-.53-.72-.94-1.55-1.2-2.51-.27-.95-.41-1.95-.41-2.99s.13-1.98.41-2.93c.27-.95.67-1.8,1.2-2.53.53-.74,1.2-1.34,2.01-1.8s1.74-.7,2.81-.72c.86-.01,1.68.17,2.46.55.78.38,1.22.92,1.22.92.34.42.64.76.65.76.02,0,.03-.45.03-.99v-5.55c0-.55.44-.99.97-.98.69.01,1.37.03,2.06.05.53.02.96.48.97,1.03v18.69c0,.55-.44.98-.97.96l-1.87-.05c-.53-.01-.97-.45-.97-.97s-.01-.95-.03-.95ZM67.95,34.75c-.11-.57-.3-1.08-.58-1.51s-.62-.79-1.05-1.06-.98-.41-1.63-.4c-.66,0-1.21.15-1.66.42-.45.28-.81.65-1.08,1.09s-.47.97-.59,1.53c-.12.58-.19,1.17-.19,1.78,0,.58.06,1.16.2,1.73.13.58.34,1.09.63,1.53.29.45.66.81,1.09,1.08.44.27.97.41,1.59.4.66,0,1.2-.14,1.65-.41.44-.27.79-.63,1.05-1.08.26-.45.45-.97.56-1.54.11-.58.17-1.17.17-1.8s-.06-1.21-.17-1.78ZM76.59,28.05c-.53-.03-.96-.63-.96-1.33v-1.78c0-.69.43-1.23.96-1.2.69.05,1.37.1,2.06.16.53.04.96.65.96,1.34v1.78c0,.69-.43,1.22-.96,1.18-.69-.06-1.37-.11-2.06-.16ZM78.65,29.6c.53.04.96.53.96,1.08v12.98c0,.55-.43.95-.96.91-.69-.06-1.37-.1-2.06-.16-.53-.03-.96-.51-.96-1.05v-12.98c0-.55.43-.97.96-.93.69.05,1.37.1,2.06.15ZM91.09,45.78c0,.1-.03.17-.1.22s-.17.07-.31.08c-.14,0-.35-.02-.62-.06-.29-.05-.51-.09-.64-.14s-.23-.1-.28-.17c-.05-.06-.08-.15-.08-.25v-.77c-.36.37-.77.65-1.23.82-.46.17-.97.23-1.53.15-.47-.06-.89-.18-1.28-.37-.39-.18-.73-.42-1.01-.72-.28-.3-.51-.65-.66-1.06-.16-.41-.23-.87-.23-1.4,0-.56.1-1.05.3-1.44s.5-.7.9-.93.89-.37,1.48-.42c.59-.06,1.27-.03,2.05.08l.85.12v-.59c0-.3-.03-.58-.08-.81s-.15-.44-.27-.61-.3-.31-.51-.41-.48-.17-.79-.22c-.41-.06-.78-.05-1.1,0s-.61.13-.86.23c-.25.09-.46.18-.62.26-.17.08-.3.12-.41.1-.07,0-.13-.04-.19-.1-.06-.06-.1-.13-.14-.23-.03-.1-.06-.22-.08-.36-.02-.14-.03-.29-.03-.46,0-.23.02-.4.05-.53.03-.13.09-.24.19-.33.09-.09.25-.19.48-.29.23-.1.5-.19.81-.26s.65-.12,1.01-.14.74,0,1.12.05c.69.09,1.27.26,1.76.48.49.22.88.51,1.2.87s.54.79.69,1.3c.15.51.22,1.1.22,1.76,0,2.19,0,4.37,0,6.55ZM88.67,41.25c-.31-.05-.63-.09-.94-.13-.4-.06-.74-.07-1.02-.04-.28.03-.51.1-.69.2-.17.11-.31.25-.39.42-.08.17-.12.38-.12.62,0,.41.12.74.35,1,.23.26.55.42.97.48.35.05.66,0,.96-.16.29-.16.59-.4.89-.73,0-.56,0-1.1,0-1.66ZM107.29,49.27c0,.07-.02.13-.06.17-.04.05-.1.07-.19.08s-.21,0-.37-.02c-.15-.02-.35-.06-.59-.13-.24-.06-.44-.13-.6-.19s-.28-.12-.37-.18c-.09-.06-.16-.12-.19-.19s-.05-.13-.05-.2v-5.76c0-.33-.03-.63-.08-.91-.05-.28-.14-.53-.25-.76s-.26-.41-.42-.55-.37-.25-.61-.31c-.29-.07-.58-.02-.88.17-.3.18-.62.48-.97.88v6.45c0,.07-.02.13-.06.17-.04.05-.1.08-.2.09-.09.02-.22.01-.37,0s-.35-.05-.58-.1c-.24-.05-.44-.1-.59-.16-.16-.05-.28-.1-.37-.16-.09-.06-.16-.12-.2-.18-.04-.06-.06-.13-.06-.2v-5.76c0-.33-.03-.63-.08-.91s-.14-.53-.24-.74c-.11-.22-.26-.4-.43-.53s-.38-.24-.61-.28c-.3-.06-.6,0-.9.2-.3.19-.62.5-.97.92v6.45c0,.07-.02.13-.06.18-.04.05-.1.08-.2.1-.09.02-.22.02-.38.01-.16-.01-.35-.04-.59-.09-.24-.05-.44-.09-.59-.14s-.28-.1-.38-.15c-.09-.05-.16-.11-.2-.17-.04-.06-.06-.13-.06-.2v-9.7c0-.07.02-.13.05-.18.03-.05.09-.08.17-.1s.19-.03.33-.02.3.03.5.06c.21.04.38.08.52.12.14.05.24.09.32.14.08.05.13.1.16.17.03.06.05.13.05.2v1.12c.48-.49.96-.83,1.44-1.02s.98-.23,1.49-.13c.35.08.67.19.96.33.28.15.54.32.76.53.22.2.41.44.58.69.16.26.3.53.41.82.26-.25.51-.46.76-.63.25-.16.49-.29.74-.37.24-.08.48-.13.73-.14s.49.02.74.08c.57.15,1.05.38,1.45.7.4.32.71.7.95,1.14.24.44.41.92.52,1.45s.15,1.07.15,1.63c-.02,2.09-.02,4.16-.02,6.23Z"/>
  <g>
    <path class="cls-4" d="M126.09,13.16h-.72v1.31h-.69v-3.35h1.65c.23,0,.41.03.54.09.13.05.23.13.32.23.08.09.13.18.17.28.04.1.06.22.06.35,0,.16-.04.31-.12.47s-.22.26-.4.33c.16.06.26.15.33.27s.1.29.1.52v.23c0,.15,0,.26.02.31.02.09.06.15.13.19v.08h-.77c-.02-.08-.03-.13-.05-.18-.02-.09-.03-.19-.03-.29v-.31c-.01-.22-.05-.35-.12-.42-.08-.08-.22-.11-.42-.11ZM126.51,12.55c.14-.06.21-.19.21-.38,0-.2-.07-.34-.2-.41-.08-.04-.19-.06-.34-.06h-.81v.9h.79c.16,0,.28-.02.36-.06Z"/>
    <path class="cls-4" d="M125.98,15.97c-1.77,0-3.2-1.44-3.2-3.2s1.44-3.2,3.2-3.2,3.2,1.44,3.2,3.2-1.44,3.2-3.2,3.2ZM125.98,10.15c-1.45,0-2.62,1.17-2.62,2.62s1.17,2.62,2.62,2.62,2.62-1.17,2.62-2.62-1.17-2.62-2.62-2.62Z"/>
  </g>
</svg>